<svg width="461" height="34" viewBox="0 0 461 34" fill="none" xmlns="http://www.w3.org/2000/svg">
<mask id="path-1-inside-1_13_4647" fill="white">
<path fill-rule="evenodd" clip-rule="evenodd" d="M461 28.5C461 31.5376 458.538 34 455.5 34L422 34C420.895 34 420 33.1046 420 32L420 23L420 20.5C420 15.2533 415.747 11 410.5 11C405.253 11 401 15.2533 401 20.5L401 23L401 32C401 33.1046 400.105 34 399 34L362 34C360.895 34 360 33.1046 360 32L360 23L360 20.5C360 15.2533 355.747 11 350.5 11C345.253 11 341 15.2533 341 20.5L341 23L341 32C341 33.1046 340.105 34 339 34L302 34C300.895 34 300 33.1046 300 32L300 23L300 20.5C300 15.2533 295.747 11 290.5 11C285.253 11 281 15.2533 281 20.5L281 23L281 32C281 33.1046 280.105 34 279 34L242 34C240.895 34 240 33.1046 240 32L240 23L240 20.5C240 15.2533 235.747 11 230.5 11C225.253 11 221 15.2533 221 20.5L221 23L221 32C221 33.1046 220.105 34 219 34L182 34C180.895 34 180 33.1046 180 32L180 23L180 20.5C180 15.2533 175.747 11 170.5 11C165.253 11 161 15.2533 161 20.5L161 23L161 32C161 33.1046 160.105 34 159 34L122 34C120.895 34 120 33.1046 120 32L120 23L120 20.5C120 15.2533 115.747 11 110.5 11C105.253 11 101 15.2533 101 20.5L101 23L101 32C101 33.1046 100.105 34 99 34L62 34C60.8954 34 60 33.1046 60 32L60 23L60 20.5C60 15.2533 55.7467 11 50.5 11C45.2533 11 41 15.2533 41 20.5L41 23L41 32C41 33.1046 40.1046 34 39 34L5.5 34C2.46243 34 2.15273e-07 31.5376 4.80825e-07 28.5C7.46378e-07 25.4624 2.46243 23 5.5 23L18 23C24.6274 23 30 17.6274 30 11C30 4.92486 34.9249 -6.73109e-06 41 -6.19999e-06L60 -4.53896e-06C66.0751 -4.00785e-06 71 4.92486 71 11L71 13.5C71 18.7467 75.2533 23 80.5 23C85.7467 23 90 18.7467 90 13.5L90 11C90 4.92487 94.9249 -1.48573e-06 101 -9.54621e-07L120 7.06411e-07C126.075 1.23752e-06 131 4.92487 131 11L131 13.5C131 18.7467 135.253 23 140.5 23C145.747 23 150 18.7467 150 13.5L150 11C150 4.92487 154.925 3.75964e-06 161 4.29075e-06L180 5.95178e-06C186.075 6.48288e-06 191 4.92487 191 11L191 13.5C191 18.7467 195.253 23 200.5 23C205.747 23 210 18.7467 210 13.5L210 11C210 4.92488 214.925 9.00501e-06 221 9.53611e-06L240 1.11971e-05C246.075 1.17282e-05 251 4.92488 251 11L251 13.5C251 18.7467 255.253 23 260.5 23C265.747 23 270 18.7467 270 13.5L270 11C270 4.92488 274.925 1.42504e-05 281 1.47815e-05L300 1.64425e-05C306.075 1.69736e-05 311 4.92489 311 11L311 13.5C311 18.7467 315.253 23 320.5 23C325.747 23 330 18.7467 330 13.5L330 11C330 4.92489 334.925 1.94957e-05 341 2.00268e-05L360 2.16879e-05C366.075 2.2219e-05 371 4.92489 371 11L371 13.5C371 18.7467 375.253 23 380.5 23C385.747 23 390 18.7467 390 13.5L390 11C390 4.92489 394.925 2.47411e-05 401 2.52722e-05L420 2.69332e-05C426.075 2.74643e-05 431 4.9249 431 11C431 17.6274 436.373 23 443 23L455.5 23C458.538 23 461 25.4625 461 28.5Z"/>
</mask>
<path fill-rule="evenodd" clip-rule="evenodd" d="M461 28.5C461 31.5376 458.538 34 455.5 34L422 34C420.895 34 420 33.1046 420 32L420 23L420 20.5C420 15.2533 415.747 11 410.5 11C405.253 11 401 15.2533 401 20.5L401 23L401 32C401 33.1046 400.105 34 399 34L362 34C360.895 34 360 33.1046 360 32L360 23L360 20.5C360 15.2533 355.747 11 350.5 11C345.253 11 341 15.2533 341 20.5L341 23L341 32C341 33.1046 340.105 34 339 34L302 34C300.895 34 300 33.1046 300 32L300 23L300 20.5C300 15.2533 295.747 11 290.5 11C285.253 11 281 15.2533 281 20.5L281 23L281 32C281 33.1046 280.105 34 279 34L242 34C240.895 34 240 33.1046 240 32L240 23L240 20.5C240 15.2533 235.747 11 230.5 11C225.253 11 221 15.2533 221 20.5L221 23L221 32C221 33.1046 220.105 34 219 34L182 34C180.895 34 180 33.1046 180 32L180 23L180 20.5C180 15.2533 175.747 11 170.5 11C165.253 11 161 15.2533 161 20.5L161 23L161 32C161 33.1046 160.105 34 159 34L122 34C120.895 34 120 33.1046 120 32L120 23L120 20.5C120 15.2533 115.747 11 110.5 11C105.253 11 101 15.2533 101 20.5L101 23L101 32C101 33.1046 100.105 34 99 34L62 34C60.8954 34 60 33.1046 60 32L60 23L60 20.5C60 15.2533 55.7467 11 50.5 11C45.2533 11 41 15.2533 41 20.5L41 23L41 32C41 33.1046 40.1046 34 39 34L5.5 34C2.46243 34 2.15273e-07 31.5376 4.80825e-07 28.5C7.46378e-07 25.4624 2.46243 23 5.5 23L18 23C24.6274 23 30 17.6274 30 11C30 4.92486 34.9249 -6.73109e-06 41 -6.19999e-06L60 -4.53896e-06C66.0751 -4.00785e-06 71 4.92486 71 11L71 13.5C71 18.7467 75.2533 23 80.5 23C85.7467 23 90 18.7467 90 13.5L90 11C90 4.92487 94.9249 -1.48573e-06 101 -9.54621e-07L120 7.06411e-07C126.075 1.23752e-06 131 4.92487 131 11L131 13.5C131 18.7467 135.253 23 140.5 23C145.747 23 150 18.7467 150 13.5L150 11C150 4.92487 154.925 3.75964e-06 161 4.29075e-06L180 5.95178e-06C186.075 6.48288e-06 191 4.92487 191 11L191 13.5C191 18.7467 195.253 23 200.5 23C205.747 23 210 18.7467 210 13.5L210 11C210 4.92488 214.925 9.00501e-06 221 9.53611e-06L240 1.11971e-05C246.075 1.17282e-05 251 4.92488 251 11L251 13.5C251 18.7467 255.253 23 260.5 23C265.747 23 270 18.7467 270 13.5L270 11C270 4.92488 274.925 1.42504e-05 281 1.47815e-05L300 1.64425e-05C306.075 1.69736e-05 311 4.92489 311 11L311 13.5C311 18.7467 315.253 23 320.5 23C325.747 23 330 18.7467 330 13.5L330 11C330 4.92489 334.925 1.94957e-05 341 2.00268e-05L360 2.16879e-05C366.075 2.2219e-05 371 4.92489 371 11L371 13.5C371 18.7467 375.253 23 380.5 23C385.747 23 390 18.7467 390 13.5L390 11C390 4.92489 394.925 2.47411e-05 401 2.52722e-05L420 2.69332e-05C426.075 2.74643e-05 431 4.9249 431 11C431 17.6274 436.373 23 443 23L455.5 23C458.538 23 461 25.4625 461 28.5Z" fill="#CF5C36"/>
<path d="M422 35L455.5 35L455.5 33L422 33L422 35ZM419 23L419 32L421 32L421 23L419 23ZM419 20.5L419 23L421 23L421 20.5L419 20.5ZM402 23L402 20.5L400 20.5L400 23L402 23ZM402 32L402 23L400 23L400 32L402 32ZM362 35L399 35L399 33L362 33L362 35ZM359 23L359 32L361 32L361 23L359 23ZM359 20.5L359 23L361 23L361 20.5L359 20.5ZM342 23L342 20.5L340 20.5L340 23L342 23ZM342 32L342 23L340 23L340 32L342 32ZM302 35L339 35L339 33L302 33L302 35ZM299 23L299 32L301 32L301 23L299 23ZM299 20.5L299 23L301 23L301 20.5L299 20.5ZM282 23L282 20.5L280 20.5L280 23L282 23ZM282 32L282 23L280 23L280 32L282 32ZM242 35L279 35L279 33L242 33L242 35ZM239 23L239 32L241 32L241 23L239 23ZM239 20.5L239 23L241 23L241 20.5L239 20.5ZM222 23L222 20.5L220 20.5L220 23L222 23ZM222 32L222 23L220 23L220 32L222 32ZM182 35L219 35L219 33L182 33L182 35ZM179 23L179 32L181 32L181 23L179 23ZM179 20.5L179 23L181 23L181 20.5L179 20.5ZM162 23L162 20.5L160 20.5L160 23L162 23ZM162 32L162 23L160 23L160 32L162 32ZM122 35L159 35L159 33L122 33L122 35ZM119 23L119 32L121 32L121 23L119 23ZM119 20.5L119 23L121 23L121 20.5L119 20.5ZM102 23L102 20.5L100 20.5L100 23L102 23ZM102 32L102 23L100 23L100 32L102 32ZM62 35L99 35L99 33L62 33L62 35ZM59 23L59 32L61 32L61 23L59 23ZM59 20.5L59 23L61 23L61 20.5L59 20.5ZM40 20.5L40 23L42 23L42 20.5L40 20.5ZM40 23L40 32L42 32L42 23L40 23ZM5.5 35L39 35L39 33L5.5 33L5.5 35ZM18 22L5.5 22L5.5 24L18 24L18 22ZM60 -1L41 -1.00001L41 0.999994L60 0.999995L60 -1ZM72 13.5L72 11L70 11L70 13.5L72 13.5ZM89 11L89 13.5L91 13.5L91 11L89 11ZM120 -0.999999L101 -1L101 0.999999L120 1L120 -0.999999ZM132 13.5L132 11L130 11L130 13.5L132 13.5ZM149 11L149 13.5L151 13.5L151 11L149 11ZM180 -0.999994L161 -0.999996L161 1L180 1.00001L180 -0.999994ZM192 13.5L192 11L190 11L190 13.5L192 13.5ZM209 11L209 13.5L211 13.5L211 11L209 11ZM240 -0.999989L221 -0.99999L221 1.00001L240 1.00001L240 -0.999989ZM252 13.5L252 11L250 11L250 13.5L252 13.5ZM269 11L269 13.5L271 13.5L271 11L269 11ZM300 -0.999984L281 -0.999985L281 1.00001L300 1.00002L300 -0.999984ZM312 13.5L312 11L310 11L310 13.5L312 13.5ZM329 11L329 13.5L331 13.5L331 11L329 11ZM360 -0.999978L341 -0.99998L341 1.00002L360 1.00002L360 -0.999978ZM372 13.5L372 11L370 11L370 13.5L372 13.5ZM389 11L389 13.5L391 13.5L391 11L389 11ZM420 -0.999973L401 -0.999975L401 1.00003L420 1.00003L420 -0.999973ZM455.5 22L443 22L443 24L455.5 24L455.5 22ZM430 11C430 18.1797 435.82 24 443 24L443 22C436.925 22 432 17.0752 432 11L430 11ZM380.5 24C386.299 24 391 19.299 391 13.5L389 13.5C389 18.1944 385.194 22 380.5 22L380.5 24ZM370 13.5C370 19.299 374.701 24 380.5 24L380.5 22C375.806 22 372 18.1944 372 13.5L370 13.5ZM360 1.00002C365.523 1.00002 370 5.47717 370 11L372 11C372 4.37261 366.627 -0.999978 360 -0.999978L360 1.00002ZM331 11C331 5.47717 335.477 1.00002 341 1.00002L341 -0.99998C334.373 -0.999981 329 4.3726 329 11L331 11ZM320.5 24C326.299 24 331 19.299 331 13.5L329 13.5C329 18.1944 325.194 22 320.5 22L320.5 24ZM310 13.5C310 19.299 314.701 24 320.5 24L320.5 22C315.806 22 312 18.1944 312 13.5L310 13.5ZM300 1.00002C305.523 1.00002 310 5.47717 310 11L312 11C312 4.3726 306.627 -0.999983 300 -0.999984L300 1.00002ZM271 11C271 5.47717 275.477 1.00001 281 1.00001L281 -0.999985C274.373 -0.999986 269 4.3726 269 11L271 11ZM260.5 24C266.299 24 271 19.299 271 13.5L269 13.5C269 18.1944 265.194 22 260.5 22L260.5 24ZM250 13.5C250 19.299 254.701 24 260.5 24L260.5 22C255.806 22 252 18.1944 252 13.5L250 13.5ZM200.5 24C206.299 24 211 19.299 211 13.5L209 13.5C209 18.1944 205.194 22 200.5 22L200.5 24ZM180 1.00001C185.523 1.00001 190 5.47716 190 11L192 11C192 4.37259 186.627 -0.999993 180 -0.999994L180 1.00001ZM151 11C151 5.47716 155.477 1 161 1L161 -0.999996C154.373 -0.999996 149 4.37259 149 11L151 11ZM130 13.5C130 19.299 134.701 24 140.5 24L140.5 22C135.806 22 132 18.1944 132 13.5L130 13.5ZM80.5 24C86.299 24 91 19.299 91 13.5L89 13.5C89 18.1944 85.1944 22 80.5 22L80.5 24ZM60 0.999995C65.5229 0.999996 70 5.47715 70 11L72 11C72 4.37258 66.6274 -1 60 -1L60 0.999995ZM31 11C31 5.47714 35.4771 0.999993 41 0.999994L41 -1.00001C34.3726 -1.00001 29 4.37258 29 11L31 11ZM1 28.5C1 26.0147 3.01471 24 5.5 24L5.5 22C1.91016 22 -0.999999 24.9101 -1 28.5L1 28.5ZM5.5 33C3.01471 33 1 30.9853 1 28.5L-1 28.5C-1 32.0898 1.91016 35 5.5 35L5.5 33ZM50.5 9.99999C44.701 9.99999 40 14.701 40 20.5L42 20.5C42 15.8056 45.8056 12 50.5 12L50.5 9.99999ZM62 33C61.4477 33 61 32.5523 61 32L59 32C59 33.6568 60.3431 35 62 35L62 33ZM110.5 10C104.701 10 100 14.701 100 20.5L102 20.5C102 15.8056 105.806 12 110.5 12L110.5 10ZM122 33C121.448 33 121 32.5523 121 32L119 32C119 33.6569 120.343 35 122 35L122 33ZM170.5 10C164.701 10 160 14.701 160 20.5L162 20.5C162 15.8056 165.806 12 170.5 12L170.5 10ZM240 1.00001C245.523 1.00001 250 5.47716 250 11L252 11C252 4.3726 246.627 -0.999988 240 -0.999989L240 1.00001ZM182 33C181.448 33 181 32.5523 181 32L179 32C179 33.6569 180.343 35 182 35L182 33ZM190 13.5C190 19.299 194.701 24 200.5 24L200.5 22C195.806 22 192 18.1944 192 13.5L190 13.5ZM230.5 10C224.701 10 220 14.701 220 20.5L222 20.5C222 15.8056 225.806 12 230.5 12L230.5 10ZM242 33C241.448 33 241 32.5523 241 32L239 32C239 33.6569 240.343 35 242 35L242 33ZM121 20.5C121 14.701 116.299 10 110.5 10L110.5 12C115.194 12 119 15.8056 119 20.5L121 20.5ZM120 1C125.523 1 130 5.47715 130 11L132 11C132 4.37259 126.627 -0.999999 120 -0.999999L120 1ZM290.5 10C284.701 10 280 14.701 280 20.5L282 20.5C282 15.8056 285.806 12 290.5 12L290.5 10ZM160 32C160 32.5523 159.552 33 159 33L159 35C160.657 35 162 33.6569 162 32L160 32ZM70 13.5C70 19.299 74.701 24 80.5 24L80.5 22C75.8056 22 72 18.1944 72 13.5L70 13.5ZM302 33C301.448 33 301 32.5523 301 32L299 32C299 33.6569 300.343 35 302 35L302 33ZM181 20.5C181 14.701 176.299 10 170.5 10L170.5 12C175.194 12 179 15.8056 179 20.5L181 20.5ZM350.5 10C344.701 10 340 14.701 340 20.5L342 20.5C342 15.8056 345.806 12 350.5 12L350.5 10ZM91 11C91 5.47715 95.4771 0.999999 101 0.999999L101 -1C94.3726 -1 89 4.37258 89 11L91 11ZM301 20.5C301 14.701 296.299 10 290.5 10L290.5 12C295.194 12 299 15.8056 299 20.5L301 20.5ZM211 11C211 5.47716 215.477 1.00001 221 1.00001L221 -0.99999C214.373 -0.999991 209 4.37259 209 11L211 11ZM220 32C220 32.5523 219.552 33 219 33L219 35C220.657 35 222 33.6569 222 32L220 32ZM40 32C40 32.5523 39.5523 33 39 33L39 35C40.6569 35 42 33.6568 42 32L40 32ZM362 33C361.448 33 361 32.5523 361 32L359 32C359 33.6569 360.343 35 362 35L362 33ZM400 32C400 32.5523 399.552 33 399 33L399 35C400.657 35 402 33.6569 402 32L400 32ZM455.5 24C457.985 24 460 26.0147 460 28.5L462 28.5C462 24.9102 459.09 22 455.5 22L455.5 24ZM421 20.5C421 14.701 416.299 10 410.5 10L410.5 12C415.194 12 419 15.8056 419 20.5L421 20.5ZM18 24C25.1797 24 31 18.1797 31 11L29 11C29 17.0751 24.0751 22 18 22L18 24ZM361 20.5C361 14.701 356.299 10 350.5 10L350.5 12C355.194 12 359 15.8056 359 20.5L361 20.5ZM140.5 24C146.299 24 151 19.299 151 13.5L149 13.5C149 18.1944 145.194 22 140.5 22L140.5 24ZM280 32C280 32.5523 279.552 33 279 33L279 35C280.657 35 282 33.6569 282 32L280 32ZM100 32C100 32.5523 99.5523 33 99 33L99 35C100.657 35 102 33.6569 102 32L100 32ZM420 1.00003C425.523 1.00003 430 5.47718 430 11L432 11C432 4.37261 426.627 -0.999972 420 -0.999973L420 1.00003ZM455.5 35C459.09 35 462 32.0899 462 28.5L460 28.5C460 30.9853 457.985 33 455.5 33L455.5 35ZM340 32C340 32.5523 339.552 33 339 33L339 35C340.657 35 342 33.6569 342 32L340 32ZM241 20.5C241 14.701 236.299 10 230.5 10L230.5 12C235.194 12 239 15.8056 239 20.5L241 20.5ZM61 20.5C61 14.701 56.299 10 50.5 9.99999L50.5 12C55.1944 12 59 15.8056 59 20.5L61 20.5ZM410.5 10C404.701 10 400 14.701 400 20.5L402 20.5C402 15.8056 405.806 12 410.5 12L410.5 10ZM391 11C391 5.47718 395.477 1.00002 401 1.00003L401 -0.999975C394.373 -0.999975 389 4.37261 389 11L391 11ZM422 33C421.448 33 421 32.5523 421 32L419 32C419 33.6569 420.343 35 422 35L422 33Z" fill="#0C1713" mask="url(#path-1-inside-1_13_4647)"/>
</svg>
