<svg width="461" height="34" viewBox="0 0 461 34" fill="none" xmlns="http://www.w3.org/2000/svg">
<mask id="path-1-inside-1_13_4646" fill="white">
<path fill-rule="evenodd" clip-rule="evenodd" d="M0 5.5C0 2.46243 2.46243 0 5.5 0H39C40.1046 0 41 0.895431 41 2V11V13.5C41 18.7467 45.2533 23 50.5 23C55.7467 23 60 18.7467 60 13.5V11V2C60 0.89543 60.8954 0 62 0H99C100.105 0 101 0.895431 101 2V11V13.5C101 18.7467 105.253 23 110.5 23C115.747 23 120 18.7467 120 13.5V11V2C120 0.89543 120.895 0 122 0H159C160.105 0 161 0.895431 161 2V11V13.5C161 18.7467 165.253 23 170.5 23C175.747 23 180 18.7467 180 13.5V11V2C180 0.89543 180.895 0 182 0H219C220.105 0 221 0.895431 221 2V11V13.5C221 18.7467 225.253 23 230.5 23C235.747 23 240 18.7467 240 13.5V11V2C240 0.89543 240.895 0 242 0H279C280.105 0 281 0.895431 281 2V11V13.5C281 18.7467 285.253 23 290.5 23C295.747 23 300 18.7467 300 13.5V11V2C300 0.89543 300.895 0 302 0H339C340.105 0 341 0.895431 341 2V11V13.5C341 18.7467 345.253 23 350.5 23C355.747 23 360 18.7467 360 13.5V11V2C360 0.89543 360.895 0 362 0H399C400.105 0 401 0.895431 401 2V11V13.5C401 18.7467 405.253 23 410.5 23C415.747 23 420 18.7467 420 13.5V11V2C420 0.89543 420.895 0 422 0H455.5C458.538 0 461 2.46243 461 5.5C461 8.53757 458.538 11 455.5 11H443C436.373 11 431 16.3726 431 23C431 29.0751 426.075 34 420 34H401C394.925 34 390 29.0751 390 23V20.5C390 15.2533 385.747 11 380.5 11C375.253 11 371 15.2533 371 20.5V23C371 29.0751 366.075 34 360 34H341C334.925 34 330 29.0751 330 23V20.5C330 15.2533 325.747 11 320.5 11C315.253 11 311 15.2533 311 20.5V23C311 29.0751 306.075 34 300 34H281C274.925 34 270 29.0751 270 23V20.5C270 15.2533 265.747 11 260.5 11C255.253 11 251 15.2533 251 20.5V23C251 29.0751 246.075 34 240 34H221C214.925 34 210 29.0751 210 23V20.5C210 15.2533 205.747 11 200.5 11C195.253 11 191 15.2533 191 20.5V23C191 29.0751 186.075 34 180 34H161C154.925 34 150 29.0751 150 23V20.5C150 15.2533 145.747 11 140.5 11C135.253 11 131 15.2533 131 20.5V23C131 29.0751 126.075 34 120 34H101C94.9249 34 90 29.0751 90 23V20.5C90 15.2533 85.7467 11 80.5 11C75.2533 11 71 15.2533 71 20.5V23C71 29.0751 66.0751 34 60 34H41C34.9249 34 30 29.0751 30 23C30 16.3726 24.6274 11 18 11H5.5C2.46243 11 0 8.53757 0 5.5Z"/>
</mask>
<path fill-rule="evenodd" clip-rule="evenodd" d="M0 5.5C0 2.46243 2.46243 0 5.5 0H39C40.1046 0 41 0.895431 41 2V11V13.5C41 18.7467 45.2533 23 50.5 23C55.7467 23 60 18.7467 60 13.5V11V2C60 0.89543 60.8954 0 62 0H99C100.105 0 101 0.895431 101 2V11V13.5C101 18.7467 105.253 23 110.5 23C115.747 23 120 18.7467 120 13.5V11V2C120 0.89543 120.895 0 122 0H159C160.105 0 161 0.895431 161 2V11V13.5C161 18.7467 165.253 23 170.5 23C175.747 23 180 18.7467 180 13.5V11V2C180 0.89543 180.895 0 182 0H219C220.105 0 221 0.895431 221 2V11V13.5C221 18.7467 225.253 23 230.5 23C235.747 23 240 18.7467 240 13.5V11V2C240 0.89543 240.895 0 242 0H279C280.105 0 281 0.895431 281 2V11V13.5C281 18.7467 285.253 23 290.5 23C295.747 23 300 18.7467 300 13.5V11V2C300 0.89543 300.895 0 302 0H339C340.105 0 341 0.895431 341 2V11V13.5C341 18.7467 345.253 23 350.5 23C355.747 23 360 18.7467 360 13.5V11V2C360 0.89543 360.895 0 362 0H399C400.105 0 401 0.895431 401 2V11V13.5C401 18.7467 405.253 23 410.5 23C415.747 23 420 18.7467 420 13.5V11V2C420 0.89543 420.895 0 422 0H455.5C458.538 0 461 2.46243 461 5.5C461 8.53757 458.538 11 455.5 11H443C436.373 11 431 16.3726 431 23C431 29.0751 426.075 34 420 34H401C394.925 34 390 29.0751 390 23V20.5C390 15.2533 385.747 11 380.5 11C375.253 11 371 15.2533 371 20.5V23C371 29.0751 366.075 34 360 34H341C334.925 34 330 29.0751 330 23V20.5C330 15.2533 325.747 11 320.5 11C315.253 11 311 15.2533 311 20.5V23C311 29.0751 306.075 34 300 34H281C274.925 34 270 29.0751 270 23V20.5C270 15.2533 265.747 11 260.5 11C255.253 11 251 15.2533 251 20.5V23C251 29.0751 246.075 34 240 34H221C214.925 34 210 29.0751 210 23V20.5C210 15.2533 205.747 11 200.5 11C195.253 11 191 15.2533 191 20.5V23C191 29.0751 186.075 34 180 34H161C154.925 34 150 29.0751 150 23V20.5C150 15.2533 145.747 11 140.5 11C135.253 11 131 15.2533 131 20.5V23C131 29.0751 126.075 34 120 34H101C94.9249 34 90 29.0751 90 23V20.5C90 15.2533 85.7467 11 80.5 11C75.2533 11 71 15.2533 71 20.5V23C71 29.0751 66.0751 34 60 34H41C34.9249 34 30 29.0751 30 23C30 16.3726 24.6274 11 18 11H5.5C2.46243 11 0 8.53757 0 5.5Z" fill="#CF5C36"/>
<path d="M39 -1H5.5V1H39V-1ZM42 11V2H40V11H42ZM42 13.5V11H40V13.5H42ZM59 11V13.5H61V11H59ZM59 2V11H61V2H59ZM99 -1H62V1H99V-1ZM102 11V2H100V11H102ZM102 13.5V11H100V13.5H102ZM119 11V13.5H121V11H119ZM119 2V11H121V2H119ZM159 -1H122V1H159V-1ZM162 11V2H160V11H162ZM162 13.5V11H160V13.5H162ZM179 11V13.5H181V11H179ZM179 2V11H181V2H179ZM219 -1H182V1H219V-1ZM222 11V2H220V11H222ZM222 13.5V11H220V13.5H222ZM239 11V13.5H241V11H239ZM239 2V11H241V2H239ZM279 -1H242V1H279V-1ZM282 11V2H280V11H282ZM282 13.5V11H280V13.5H282ZM299 11V13.5H301V11H299ZM299 2V11H301V2H299ZM339 -1H302V1H339V-1ZM342 11V2H340V11H342ZM342 13.5V11H340V13.5H342ZM359 11V13.5H361V11H359ZM359 2V11H361V2H359ZM399 -1H362V1H399V-1ZM402 11V2H400V11H402ZM402 13.5V11H400V13.5H402ZM421 13.5V11H419V13.5H421ZM421 11V2H419V11H421ZM455.5 -1H422V1H455.5V-1ZM443 12H455.5V10H443V12ZM401 35H420V33H401V35ZM389 20.5V23H391V20.5H389ZM372 23V20.5H370V23H372ZM341 35H360V33H341V35ZM329 20.5V23H331V20.5H329ZM312 23V20.5H310V23H312ZM281 35H300V33H281V35ZM269 20.5V23H271V20.5H269ZM252 23V20.5H250V23H252ZM221 35H240V33H221V35ZM209 20.5V23H211V20.5H209ZM192 23V20.5H190V23H192ZM161 35H180V33H161V35ZM149 20.5V23H151V20.5H149ZM132 23V20.5H130V23H132ZM101 35H120V33H101V35ZM89 20.5V23H91V20.5H89ZM72 23V20.5H70V23H72ZM41 35H60V33H41V35ZM5.5 12H18V10H5.5V12ZM31 23C31 15.8203 25.1797 10 18 10V12C24.0751 12 29 16.9249 29 23H31ZM80.5 10C74.701 10 70 14.701 70 20.5H72C72 15.8056 75.8056 12 80.5 12V10ZM91 20.5C91 14.701 86.299 10 80.5 10V12C85.1944 12 89 15.8056 89 20.5H91ZM101 33C95.4771 33 91 28.5228 91 23H89C89 29.6274 94.3726 35 101 35V33ZM130 23C130 28.5228 125.523 33 120 33V35C126.627 35 132 29.6274 132 23H130ZM140.5 10C134.701 10 130 14.701 130 20.5H132C132 15.8056 135.806 12 140.5 12V10ZM151 20.5C151 14.701 146.299 10 140.5 10V12C145.194 12 149 15.8056 149 20.5H151ZM161 33C155.477 33 151 28.5228 151 23H149C149 29.6274 154.373 35 161 35V33ZM190 23C190 28.5228 185.523 33 180 33V35C186.627 35 192 29.6274 192 23H190ZM200.5 10C194.701 10 190 14.701 190 20.5H192C192 15.8056 195.806 12 200.5 12V10ZM211 20.5C211 14.701 206.299 10 200.5 10V12C205.194 12 209 15.8056 209 20.5H211ZM260.5 10C254.701 10 250 14.701 250 20.5H252C252 15.8056 255.806 12 260.5 12V10ZM281 33C275.477 33 271 28.5228 271 23H269C269 29.6274 274.373 35 281 35V33ZM310 23C310 28.5228 305.523 33 300 33V35C306.627 35 312 29.6274 312 23H310ZM331 20.5C331 14.701 326.299 10 320.5 10V12C325.194 12 329 15.8056 329 20.5H331ZM380.5 10C374.701 10 370 14.701 370 20.5H372C372 15.8056 375.806 12 380.5 12V10ZM401 33C395.477 33 391 28.5228 391 23H389C389 29.6274 394.373 35 401 35V33ZM430 23C430 28.5228 425.523 33 420 33V35C426.627 35 432 29.6274 432 23H430ZM460 5.5C460 7.98528 457.985 10 455.5 10V12C459.09 12 462 9.08985 462 5.5H460ZM455.5 1C457.985 1 460 3.01472 460 5.5H462C462 1.91015 459.09 -1 455.5 -1V1ZM410.5 24C416.299 24 421 19.299 421 13.5H419C419 18.1944 415.194 22 410.5 22V24ZM399 1C399.552 1 400 1.44772 400 2H402C402 0.343146 400.657 -1 399 -1V1ZM350.5 24C356.299 24 361 19.299 361 13.5H359C359 18.1944 355.194 22 350.5 22V24ZM339 1C339.552 1 340 1.44772 340 2H342C342 0.343146 340.657 -1 339 -1V1ZM290.5 24C296.299 24 301 19.299 301 13.5H299C299 18.1944 295.194 22 290.5 22V24ZM221 33C215.477 33 211 28.5228 211 23H209C209 29.6274 214.373 35 221 35V33ZM279 1C279.552 1 280 1.44772 280 2H282C282 0.343146 280.657 -1 279 -1V1ZM271 20.5C271 14.701 266.299 10 260.5 10V12C265.194 12 269 15.8056 269 20.5H271ZM230.5 24C236.299 24 241 19.299 241 13.5H239C239 18.1944 235.194 22 230.5 22V24ZM219 1C219.552 1 220 1.44772 220 2H222C222 0.343146 220.657 -1 219 -1V1ZM340 13.5C340 19.299 344.701 24 350.5 24V22C345.806 22 342 18.1944 342 13.5H340ZM341 33C335.477 33 331 28.5228 331 23H329C329 29.6274 334.373 35 341 35V33ZM170.5 24C176.299 24 181 19.299 181 13.5H179C179 18.1944 175.194 22 170.5 22V24ZM301 2C301 1.44772 301.448 1 302 1V-1C300.343 -1 299 0.343145 299 2H301ZM391 20.5C391 14.701 386.299 10 380.5 10V12C385.194 12 389 15.8056 389 20.5H391ZM159 1C159.552 1 160 1.44772 160 2H162C162 0.343146 160.657 -1 159 -1V1ZM280 13.5C280 19.299 284.701 24 290.5 24V22C285.806 22 282 18.1944 282 13.5H280ZM110.5 24C116.299 24 121 19.299 121 13.5H119C119 18.1944 115.194 22 110.5 22V24ZM370 23C370 28.5228 365.523 33 360 33V35C366.627 35 372 29.6274 372 23H370ZM160 13.5C160 19.299 164.701 24 170.5 24V22C165.806 22 162 18.1944 162 13.5H160ZM250 23C250 28.5228 245.523 33 240 33V35C246.627 35 252 29.6274 252 23H250ZM241 2C241 1.44772 241.448 1 242 1V-1C240.343 -1 239 0.343145 239 2H241ZM421 2C421 1.44772 421.448 1 422 1V-1C420.343 -1 419 0.343145 419 2H421ZM99 1C99.5523 1 100 1.44772 100 2H102C102 0.343146 100.657 -1 99 -1V1ZM61 2C61 1.44772 61.4477 1 62 1V-1C60.3431 -1 59 0.343145 59 2H61ZM5.5 10C3.01472 10 1 7.98528 1 5.5H-1C-1 9.08985 1.91015 12 5.5 12V10ZM40 13.5C40 19.299 44.701 24 50.5 24V22C45.8056 22 42 18.1944 42 13.5H40ZM443 10C435.82 10 430 15.8203 430 23H432C432 16.9249 436.925 12 443 12V10ZM100 13.5C100 19.299 104.701 24 110.5 24V22C105.806 22 102 18.1944 102 13.5H100ZM320.5 10C314.701 10 310 14.701 310 20.5H312C312 15.8056 315.806 12 320.5 12V10ZM181 2C181 1.44772 181.448 1 182 1V-1C180.343 -1 179 0.343145 179 2H181ZM361 2C361 1.44772 361.448 1 362 1V-1C360.343 -1 359 0.343145 359 2H361ZM41 33C35.4772 33 31 28.5228 31 23H29C29 29.6274 34.3726 35 41 35V33ZM5.5 -1C1.91015 -1 -1 1.91015 -1 5.5H1C1 3.01472 3.01472 1 5.5 1V-1ZM121 2C121 1.44772 121.448 1 122 1V-1C120.343 -1 119 0.343145 119 2H121ZM220 13.5C220 19.299 224.701 24 230.5 24V22C225.806 22 222 18.1944 222 13.5H220ZM400 13.5C400 19.299 404.701 24 410.5 24V22C405.806 22 402 18.1944 402 13.5H400ZM50.5 24C56.299 24 61 19.299 61 13.5H59C59 18.1944 55.1944 22 50.5 22V24ZM70 23C70 28.5228 65.5229 33 60 33V35C66.6274 35 72 29.6274 72 23H70ZM39 1C39.5523 1 40 1.44772 40 2H42C42 0.343146 40.6569 -1 39 -1V1Z" fill="#0C1713" mask="url(#path-1-inside-1_13_4646)"/>
</svg>
