<svg width="119" height="45" viewBox="0 0 119 45" fill="none" xmlns="http://www.w3.org/2000/svg">
<mask id="path-1-inside-1_13_4715" fill="white">
<path fill-rule="evenodd" clip-rule="evenodd" d="M19.8654 3C22.1748 -1 27.9483 -1 30.2577 3L36.8654 14.4449C39.1748 18.4449 44.9483 18.4449 47.2577 14.4449L53.8654 3C56.1748 -0.999998 61.9483 -0.999999 64.2577 3L70.8654 14.4449C73.1748 18.4449 78.9483 18.4449 81.2577 14.4449L87.8654 3C90.1748 -0.999999 95.9483 -0.999999 98.2577 3L117.31 36C119.62 40 116.733 45 112.114 45H88.5064H63.6167H54.5064H29.6166H6.00896C1.39015 45 -1.4966 40 0.8128 36L19.8654 3Z"/>
</mask>
<path fill-rule="evenodd" clip-rule="evenodd" d="M19.8654 3C22.1748 -1 27.9483 -1 30.2577 3L36.8654 14.4449C39.1748 18.4449 44.9483 18.4449 47.2577 14.4449L53.8654 3C56.1748 -0.999998 61.9483 -0.999999 64.2577 3L70.8654 14.4449C73.1748 18.4449 78.9483 18.4449 81.2577 14.4449L87.8654 3C90.1748 -0.999999 95.9483 -0.999999 98.2577 3L117.31 36C119.62 40 116.733 45 112.114 45H88.5064H63.6167H54.5064H29.6166H6.00896C1.39015 45 -1.4966 40 0.8128 36L19.8654 3Z" fill="#CF5C36"/>
<path d="M0.8128 36L-0.0532253 35.5L0.8128 36ZM117.31 36L116.444 36.5L117.31 36ZM98.2577 3L97.3916 3.5L98.2577 3ZM64.2577 3L63.3916 3.5L64.2577 3ZM36.8654 14.4449L35.9993 14.9449L36.8654 14.4449ZM47.2577 14.4449L46.3916 13.9449L47.2577 14.4449ZM37.7314 13.9449L31.1237 2.5L29.3916 3.5L35.9993 14.9449L37.7314 13.9449ZM52.9993 2.5L46.3916 13.9449L48.1237 14.9449L54.7314 3.5L52.9993 2.5ZM71.7314 13.9449L65.1237 2.5L63.3916 3.5L69.9993 14.9449L71.7314 13.9449ZM82.1237 14.9449L88.7314 3.5L86.9993 2.5L80.3916 13.9449L82.1237 14.9449ZM97.3916 3.5L116.444 36.5L118.176 35.5L99.1237 2.5L97.3916 3.5ZM112.114 44H88.5064V46H112.114V44ZM88.5064 44H63.6167V46H88.5064V44ZM54.5064 46H63.6167V44H54.5064V46ZM29.6166 46H54.5064V44H29.6166V46ZM6.00896 46H29.6166V44H6.00896V46ZM18.9993 2.5L-0.0532253 35.5L1.67883 36.5L20.7314 3.5L18.9993 2.5ZM6.00896 44C2.15995 44 -0.245675 39.8333 1.67883 36.5L-0.0532253 35.5C-2.74753 40.1667 0.620354 46 6.00896 46V44ZM116.444 36.5C118.369 39.8333 115.963 44 112.114 44V46C117.503 46 120.871 40.1667 118.176 35.5L116.444 36.5ZM88.7314 3.5C90.6559 0.166668 95.4671 0.166667 97.3916 3.5L99.1237 2.5C96.4294 -2.16667 89.6936 -2.16667 86.9993 2.5L88.7314 3.5ZM69.9993 14.9449C72.6936 19.6115 79.4294 19.6115 82.1237 14.9449L80.3916 13.9449C78.4671 17.2782 73.6559 17.2782 71.7314 13.9449L69.9993 14.9449ZM54.7314 3.5C56.6559 0.166668 61.4671 0.166668 63.3916 3.5L65.1237 2.5C62.4294 -2.16667 55.6936 -2.16667 52.9993 2.5L54.7314 3.5ZM31.1237 2.5C28.4294 -2.16667 21.6936 -2.16667 18.9993 2.5L20.7314 3.5C22.6559 0.166666 27.4671 0.166666 29.3916 3.5L31.1237 2.5ZM35.9993 14.9449C38.6936 19.6115 45.4294 19.6115 48.1237 14.9449L46.3916 13.9449C44.4671 17.2782 39.6559 17.2782 37.7314 13.9449L35.9993 14.9449Z" fill="black" mask="url(#path-1-inside-1_13_4715)"/>
</svg>
