<svg width="127" height="127" viewBox="0 0 127 127" fill="none" xmlns="http://www.w3.org/2000/svg">
<path d="M79.7584 46.6921L112.743 29.9017L85.9006 55.3846L85.0081 56.2319L86.2386 56.2472L123.248 56.7087L87.6375 66.7985L86.4536 67.134L87.536 67.7194L120.091 85.327L83.8713 77.7122L82.667 77.459L83.3534 78.4804L103.997 109.2L75.4645 85.6255L74.5159 84.8417L74.649 86.065L78.6518 122.86L64.3433 88.7256L63.8675 87.5907L63.4169 88.7358L49.8617 123.176L53.0552 86.3023L53.1613 85.0763L52.2302 85.8808L24.2224 110.077L44.1862 78.9107L44.85 77.8745L43.6516 78.1541L7.60742 86.5628L39.7682 68.2442L40.8375 67.6351L39.6465 67.3258L3.82317 58.0208L40.8132 56.7463L42.0431 56.7039L41.1322 55.8765L13.7365 30.9894L47.0819 47.0511L48.1905 47.5851L47.7686 46.4291L35.0765 11.6613L57.1381 41.3796L57.8716 42.3676L58.0352 41.148L62.9543 4.46428L68.6781 41.031L68.8684 42.2468L69.58 41.2429L90.9835 11.0471L79.0583 46.0854L78.6618 47.2503L79.7584 46.6921Z" fill="#CF5C36" stroke="#0C1713"/>
</svg>
