<svg width="267" height="267" viewBox="0 0 267 267" fill="none" xmlns="http://www.w3.org/2000/svg">
<path d="M171.134 89.9435L212.626 76.9761L186.546 111.756L186.061 112.403L186.856 112.548L229.623 120.348L190.367 139.024L189.637 139.371L190.273 139.869L224.516 166.651L181.078 164.944L180.27 164.913L180.602 165.65L198.476 205.277L160.807 183.579L160.106 183.175L160.058 183.982L157.469 227.377L134.198 190.659L133.765 189.976L133.347 190.668L110.888 227.889L107.347 184.562L107.281 183.756L106.589 184.175L69.4053 206.695L86.4046 166.685L86.7207 165.94L85.9138 165.99L42.5233 168.651L76.1692 141.123L76.7949 140.611L76.0574 140.28L36.4006 122.471L78.9853 113.733L79.7772 113.57L79.2781 112.934L52.4398 78.736L94.2076 90.7886L94.9844 91.0127L94.838 90.2177L86.9666 47.4642L118.349 77.5467L118.933 78.1062L119.173 77.3341L132.071 35.8198L145.879 77.0407L146.136 77.8073L146.707 77.2352L177.421 46.4704L170.491 89.3865L170.362 90.1846L171.134 89.9435Z" fill="#CF5C36" stroke="#0C1713"/>
<path d="M112.614 130V115.84H107.046V113.2H121.302V115.84H115.734V130H112.614ZM131.017 130.24C125.809 130.24 121.969 126.568 121.969 121.6C121.969 116.632 125.809 112.96 131.017 112.96C136.225 112.96 140.065 116.608 140.065 121.6C140.065 126.592 136.225 130.24 131.017 130.24ZM131.017 127.504C134.401 127.504 136.921 125.032 136.921 121.6C136.921 118.168 134.401 115.696 131.017 115.696C127.633 115.696 125.113 118.168 125.113 121.6C125.113 125.032 127.633 127.504 131.017 127.504ZM150.044 113.2C154.46 113.2 157.196 115.456 157.196 119.176C157.196 122.872 154.46 125.152 150.044 125.152H146.252V130H143.132V113.2H150.044ZM149.9 122.512C152.636 122.512 154.052 121.288 154.052 119.176C154.052 117.064 152.636 115.84 149.9 115.84H146.252V122.512H149.9ZM104.894 136.2C109.31 136.2 112.046 138.456 112.046 142.176C112.046 145.872 109.31 148.152 104.894 148.152H101.102V153H97.9821V136.2H104.894ZM104.75 145.512C107.486 145.512 108.902 144.288 108.902 142.176C108.902 140.064 107.486 138.84 104.75 138.84H101.102V145.512H104.75ZM114.922 153V136.2H118.042V153H114.922ZM130.122 153.24C124.986 153.24 121.146 149.616 121.146 144.6C121.146 139.584 124.986 135.96 130.146 135.96C132.882 135.96 135.234 136.944 136.794 138.768L134.778 140.664C133.554 139.344 132.042 138.696 130.29 138.696C126.81 138.696 124.29 141.144 124.29 144.6C124.29 148.056 126.81 150.504 130.29 150.504C132.042 150.504 133.554 149.856 134.778 148.512L136.794 150.432C135.234 152.256 132.882 153.24 130.122 153.24ZM151.255 153L145.327 145.968L142.663 148.704V153H139.543V136.2H142.663V144.816L150.967 136.2H154.471L147.415 143.712L154.903 153H151.255ZM161.644 153.24C159.028 153.24 156.412 152.424 155.02 151.224L156.1 148.8C157.444 149.88 159.58 150.648 161.644 150.648C164.26 150.648 165.364 149.712 165.364 148.464C165.364 144.84 155.38 147.216 155.38 140.976C155.38 138.264 157.54 135.96 162.148 135.96C164.164 135.96 166.276 136.488 167.74 137.448L166.756 139.872C165.244 138.984 163.588 138.552 162.124 138.552C159.532 138.552 158.476 139.56 158.476 140.832C158.476 144.408 168.436 142.08 168.436 148.248C168.436 150.936 166.252 153.24 161.644 153.24Z" fill="#F5B165"/>
</svg>
