<svg width="198" height="196" viewBox="0 0 198 196" fill="none" xmlns="http://www.w3.org/2000/svg">
<path d="M137.134 55.9435L178.626 42.9761L152.546 77.7558L152.061 78.4026L152.856 78.5476L195.623 86.3484L156.367 105.024L155.637 105.371L156.273 105.869L190.516 132.651L147.078 130.944L146.27 130.913L146.602 131.65L164.476 171.277L126.807 149.579L126.106 149.175L126.058 149.982L123.469 193.377L100.198 156.659L99.7649 155.976L99.3473 156.668L76.8883 193.889L73.3466 150.562L73.2807 149.756L72.5892 150.175L35.4053 172.695L52.4046 132.685L52.7207 131.94L51.9138 131.99L8.52326 134.651L42.1692 107.123L42.7949 106.611L42.0574 106.28L2.40057 88.4712L44.9853 79.7327L45.7772 79.5702L45.2781 78.9343L18.4398 44.736L60.2076 56.7886L60.9844 57.0127L60.838 56.2177L52.9666 13.4642L84.3491 43.5467L84.9327 44.1062L85.1726 43.3341L98.0713 1.81982L111.879 43.0407L112.136 43.8073L112.707 43.2352L143.421 12.4704L136.491 55.3865L136.362 56.1846L137.134 55.9435Z" fill="#CF5C36" stroke="#0C1713"/>
</svg>
