<svg width="19" height="37" viewBox="0 0 19 37" fill="none" xmlns="http://www.w3.org/2000/svg">
<path d="M14.9695 3.15763V8.21616e-07L18.7119 0V9.82373H14.9695V7.01695H3.74237V9.82373L1.85763e-07 9.82373L0 3.15763H14.9695Z" fill="#0C1713"/>
<circle cx="2.80678" cy="34.617" r="1.87119" fill="#0C1713"/>
<path fill-rule="evenodd" clip-rule="evenodd" d="M9.35593 30.8745C14.5231 30.8745 18.7119 26.6857 18.7119 21.5186C18.7119 16.3515 14.5231 12.1627 9.35593 12.1627C4.18879 12.1627 0 16.3515 0 21.5186C0 26.6857 4.18879 30.8745 9.35593 30.8745ZM9.35593 26.1966C11.9395 26.1966 14.0339 24.1022 14.0339 21.5186C14.0339 18.935 11.9395 16.8406 9.35593 16.8406C6.77236 16.8406 4.67797 18.935 4.67797 21.5186C4.67797 24.1022 6.77236 26.1966 9.35593 26.1966Z" fill="#0C1713"/>
</svg>
